<svg version="1.0" xmlns="http://www.w3.org/2000/svg"
 width="260.000000pt" height="260.000000pt" viewBox="0 0 260.000000 260.000000"
 preserveAspectRatio="xMidYMid meet">
<g transform="translate(0.000000,260.000000) scale(0.100000,-0.100000)"
fill="#000000" stroke="none">
<path d="M1708 1224 c-10 -19 -18 -41 -18 -48 0 -8 -7 -16 -15 -20 -8 -3 -15
-16 -15 -29 0 -14 -7 -30 -15 -37 -8 -7 -15 -21 -15 -31 0 -22 -57 -89 -75
-89 -8 0 -17 -9 -20 -20 -3 -11 -11 -20 -16 -20 -5 0 -9 -11 -9 -25 0 -13 -7
-28 -16 -33 -10 -5 -17 -22 -18 -38 -1 -21 -6 -29 -18 -28 -14 1 -18 -6 -18
-38 0 -32 -3 -39 -15 -34 -12 4 -15 -3 -15 -30 0 -28 -3 -35 -15 -30 -12 4
-15 -3 -15 -29 0 -26 -4 -35 -16 -35 -14 0 -16 -8 -11 -49 6 -50 -7 -104 -30
-129 -7 -7 -13 -22 -13 -31 0 -10 -7 -24 -15 -31 -8 -7 -15 -20 -15 -30 0 -10
-7 -23 -15 -30 -8 -7 -15 -20 -15 -30 0 -10 -7 -23 -15 -30 -8 -7 -15 -21 -15
-31 0 -18 18 -19 510 -19 427 0 510 2 510 14 0 7 -7 19 -15 26 -8 7 -15 20
-15 30 0 10 -7 23 -15 30 -8 7 -15 21 -15 31 0 9 -6 24 -14 31 -7 8 -17 25
-21 38 -4 14 -14 34 -21 45 -8 11 -14 27 -14 36 0 9 -7 22 -15 29 -8 7 -15 20
-15 30 0 10 -7 23 -15 30 -8 7 -15 20 -15 30 0 10 -7 23 -15 30 -8 7 -15 21
-15 31 0 9 -7 24 -15 33 -8 8 -15 20 -15 26 0 6 -16 40 -35 76 -19 35 -35 71
-35 78 0 7 -7 19 -15 26 -8 7 -15 20 -15 30 0 10 -7 23 -15 30 -8 7 -15 20
-15 30 0 10 -7 23 -15 30 -8 7 -15 21 -15 31 0 9 -7 24 -15 33 -8 8 -15 20
-15 26 0 6 -9 28 -20 48 -10 20 -25 52 -32 70 -7 17 -15 32 -18 32 -3 0 -13
-16 -22 -36z"/>
</g>
</svg>
